<?xml version="1.0" encoding="utf-8"?>
<!-- Generator: Adobe Illustrator 24.2.3, SVG Export Plug-In . SVG Version: 6.00 Build 0)  -->
<svg version="1.1" id="Layer_1" xmlns="http://www.w3.org/2000/svg" xmlns:xlink="http://www.w3.org/1999/xlink" x="0px" y="0px" width="125px" height="167px"
	 viewBox="0 0 200 167" style="enable-background:new 0 0 200 167;" xml:space="preserve">
<style type="text/css">
	.st0{fill-rule:evenodd;clip-rule:evenodd;fill:#F58634;}
</style>
<g>
	<path class="st0" d="M77.12,38.5c3.33-6.99,18.34-22.05,25.21-26.93c21.27-15.1,48.98-7.99,48.93,12.77
		c-0.07,23.61-28.14,28.91-39.6,10.63c-0.75-1.19-1.38-2.85-2.32-3.72l-5.55,3.85c7.28,13.31,27.34,19.15,41.25,9.67
		c13.06-8.9,16.38-27.79,2.04-38.82c-13.3-10.23-33.59-5.69-46.68,1.92c-11.53,6.7-22.91,18.69-29.8,29.84
		c-17.99-0.89-42.13-10.86-58.6-1.97C5.13,39.44-1.1,46.12,0.16,57.55c1.12,10.14,8.86,14.06,19.8,13.73l0.02-6.63
		c-8.23,0.36-14.47-1.78-15.83-8.99C2.67,47.72,7.3,41.58,12.3,39.6c9.62-3.82,33.04-0.29,43.54,1.74c-1.85,2.52-4.71,4.59-7.78,9.3
		C44.92,55.45,34.5,78,31.09,84.77c-4.09,8.11-7.38,15.9-13.48,20.6c-13,10.02-19.68-3.89-8.4-7.43c-0.96-1.87-2.22-3.62-3.68-4.6
		c-8.7,4.5-7.78,21.86,8.85,17.32c21.37-5.83,30.65-39.33,38.99-56.52c2.1-4.32,6.58-11.17,6.94-12.03l6.47,1.01L55.15,63.97
		c-4.33,7.93-10.69,17.41-2.38,20.48c1.19-2.96,5.07-7.85,6.95-10.12c2.64-3.17,5.95-5.78,8.6-8.14
		c-1.71,3.64-8.29,10.33-6.08,16.27c2.57,6.9,12.01,0.54,15.17-2.04c1.01,1.25,1.29,2.64,2.73,3.47C84,86.13,87.9,82.5,90.3,80.22
		c0.26-0.25,0.45-0.44,0.74-0.68c0.65-0.54,0.07-0.16,0.92-0.65c0.29,4.1,2.86,7.15,7.5,5.52c7.46-2.61,15.72-19.21,20.98-20.51
		c0.84,6.23-14.52,18.37-3.5,20.03c3.94-5.63,3.49-5.46,8.25-11.49c1.94-2.46,6.82-8.48,10.11-9.12
		c-0.46,2.86-6.63,11.91-6.39,17.93c0.18,4.5,4.51,4.34,7.71,2.57c2.94-1.62,4.21-3.82,6.2-5.23c-0.88,5.4-0.13,6.38,3.77,8.44
		c1.56-1.92,2.1-4.79,3.29-7.01c1.23-2.28,3.06-4.7,3.83-6.55c0.58,0.64,0.23,0.01,0.79,1.22l1.23,3.69c0.6,1.53,1.27,2.8,2.02,4.24
		c14.09,27.05,48.65,19.49,41.23-12.38l-7.05,2.39c1.66,5.32,3.66,10.57,0.57,16.27c-5.72,10.55-17.43,7.38-24.68-2.42
		c-2.15-2.91-6.33-8.34-7.35-12.55c14.69-2.53,18.77-15.18,11.18-16.85c-7.73-1.7-16.77,11.35-20.04,14.69
		c2.61-10.5,18.27-29.82,20.68-34.62c-5.98-2.29-6.2-5.25-12.08,4.34c-4.89,7.98-10.97,21.44-14.56,26.69
		c-1.84,2.69-6.84,10.14-10.06,10.99c0.35-5.75,8.42-12.77,5.82-18.31c-3.41-7.26-13.4,2.32-14.9,4.86l-0.31-0.76
		c-0.04-0.13-0.09-0.25-0.13-0.39c-0.04-0.14-0.06-0.26-0.1-0.4c-0.15-0.61-0.09-0.87-0.31-1.55c-0.28-0.86-0.7-1.34-1.26-1.83
		c-4.6-4.02-9.96,2.88-12.6,5.46c-5.3,5.2-9.47,13.5-13.61,13.07c-1.25-6.24,9.06-13.87,10.02-16.29c-2.75-2.12-3.42-1.76-6.54-0.66
		c-3.24-6.86-15.71,1.51-18.39,4.56c-3.64,4.16-4.21,7.23-5.64,8.71c-1.33,1.38-6.22,5.07-9.07,4.56
		c0.1-6.59,11.28-15.06,7.51-19.18c-4.13-4.52-15.27,7.11-17.57,8.47c0.82-3.04,5.38-10.42,6.98-13.13
		c0.93-1.58,6.39-10.61,7.86-12.08c5.37,0.19,9.5,0.6,14.6-0.9c3.84-1.13,8.12-3.32,8.88-6.62C92.37,37.5,88.95,40.55,77.12,38.5
		 M84.76,79.31c-0.25-8.13,10.97-17.43,15.19-15.55c-0.67,1.4-0.75,0.98-1.85,2.27C95.95,68.54,89.69,80.6,84.76,79.31z
		 M155.38,71.86c1.92-3.16,11.38-13.2,14.55-9.87C172.99,65.2,162.76,70.9,155.38,71.86z"/>
	<path class="st0" d="M65.29,122.8c-1.27-9.18,7.25-20.88,9.71-28c-5.37-0.07-6.11,0.57-8.27,4.01c-1.66,2.64-2.94,5.32-4.2,8.34
		c-8.97,21.48,0.46,23.97,8.56,14.82c1.08-1.22,1.44-1.72,3.06-2.27l-8.26,14c-11.85-2.2-19.4-6.09-34.31-6.11
		c-21.06-0.03-27.88,12.07-18.77,28.33c8.2,14.64,26.05,13.1,37.95,4.9c10.34-7.13,13.28-15.27,17.21-19.31
		c6.74,1.22,16.99,5.19,23.81,7.35c14.98,4.74,34.77,12.87,50.61,10.17c8.7-1.48,20.58-8.86,19.01-11
		c-1.45-1.99-1.85,1.23-9.74,3.66c-11.63,3.59-26.06,1.01-37.3-2.07c-7.37-2.02-14.43-4.29-21.49-6.78l-21.02-7.41
		c0.7-2.12,17.39-29.34,20.82-39.58l-6.51,0.39c-3.39,5.48-6.09,9.49-9.73,14.04C74.05,113.25,67.63,121.86,65.29,122.8
		 M61.8,139.46c-0.94,2.59-6.57,9.93-8.23,12.07c-3.05,3.91-5.95,7.58-9.97,10.21c-11.55,7.57-21.71-1.41-26.43-8.36
		c-7.95-11.7-6.12-21.64,10.83-20.81c5.84,0.28,12.21,1.51,17.6,2.76C50.82,136.55,56.9,138.63,61.8,139.46z"/>
	<path class="st0" d="M140.77,101.59c-0.9,2.41-15.73,23.21-20.76,22.37c-2.94-4.45,8.92-18.78,11.99-22.9
		c1.17-1.14,0.52-0.38,1.02-1.44l-8.16,0.2c-1.95,1.65-3.62,4.64-5.13,7.48c-2.48,4.63-1.99,6.18-6.23,6.12
		c0.85-2.25,2.37-5.46,1.63-8.38c-1.26-4.99-8.31-4.8-11.29,2.53c-1.33,3.26-1.06,4.41,0.77,7.25c-0.63,1.5-3.65,5.21-4.73,6.28
		c-7.66,7.61-13.89,2.01-1.49-14.02c3.21-4.14,8.77-7.9,16.85-6.61c0.06-1.76,1.02-2.48-3.5-3.25
		c-11.79-1.99-23.27,8.36-25.51,18.79c-1.68,7.79,2.21,15.69,11.11,13.32c5.45-1.45,12-7.64,13.76-11.89l4.13-0.3
		c-0.82,6.92,0.02,14.62,8.41,9.75c4.67-2.71,7.27-6.87,10.8-10.63c-0.6,4.57-2.39,8.4-0.54,13.46c1.41,3.85,4.97,6.05,10,5.4
		c6.65-0.86,15.61-9.83,17.25-13.97l-6.48-1.95c-1.51,1.8-2.58,3.75-4.08,5.47c-8.91,10.22-14.88,7.53-13.36-0.79
		c1.46-7.97,12.57-21.12,12.67-22.63l-7.66-0.55c-1.05,0.28-1.21,0.89-1.27,0.74C140.94,101.35,140.84,101.54,140.77,101.59"/>
</g>
</svg>
